<svg width="211" height="80" viewBox="0 0 211 80" fill="none" xmlns="http://www.w3.org/2000/svg">
<path d="M24.375 45.7188V13.5H30.375V45.7188C30.375 48.7188 29.7604 51.25 28.5312 53.3125C27.3021 55.375 25.6042 56.9479 23.4375 58.0312C21.2917 59.0938 18.8229 59.625 16.0312 59.625C13.2396 59.625 10.7604 59.1458 8.59375 58.1875C6.42708 57.2292 4.72917 55.7708 3.5 53.8125C2.27083 51.8542 1.65625 49.3854 1.65625 46.4062H7.6875C7.6875 48.3229 8.04167 49.8958 8.75 51.125C9.45833 52.3542 10.4375 53.2604 11.6875 53.8438C12.9583 54.4271 14.4062 54.7188 16.0312 54.7188C17.6146 54.7188 19.0312 54.3854 20.2812 53.7188C21.5521 53.0312 22.5521 52.0208 23.2812 50.6875C24.0104 49.3333 24.375 47.6771 24.375 45.7188ZM38.1875 42.4688V41.75C38.1875 39.3125 38.5417 37.0521 39.25 34.9688C39.9583 32.8646 40.9792 31.0417 42.3125 29.5C43.6458 27.9375 45.2604 26.7292 47.1562 25.875C49.0521 25 51.1771 24.5625 53.5312 24.5625C55.9062 24.5625 58.0417 25 59.9375 25.875C61.8542 26.7292 63.4792 27.9375 64.8125 29.5C66.1667 31.0417 67.1979 32.8646 67.9062 34.9688C68.6146 37.0521 68.9688 39.3125 68.9688 41.75V42.4688C68.9688 44.9062 68.6146 47.1667 67.9062 49.25C67.1979 51.3333 66.1667 53.1562 64.8125 54.7188C63.4792 56.2604 61.8646 57.4688 59.9688 58.3438C58.0938 59.1979 55.9688 59.625 53.5938 59.625C51.2188 59.625 49.0833 59.1979 47.1875 58.3438C45.2917 57.4688 43.6667 56.2604 42.3125 54.7188C40.9792 53.1562 39.9583 51.3333 39.25 49.25C38.5417 47.1667 38.1875 44.9062 38.1875 42.4688ZM43.9688 41.75V42.4688C43.9688 44.1562 44.1667 45.75 44.5625 47.25C44.9583 48.7292 45.5521 50.0417 46.3438 51.1875C47.1562 52.3333 48.1667 53.2396 49.375 53.9062C50.5833 54.5521 51.9896 54.875 53.5938 54.875C55.1771 54.875 56.5625 54.5521 57.75 53.9062C58.9583 53.2396 59.9583 52.3333 60.75 51.1875C61.5417 50.0417 62.1354 48.7292 62.5312 47.25C62.9479 45.75 63.1562 44.1562 63.1562 42.4688V41.75C63.1562 40.0833 62.9479 38.5104 62.5312 37.0312C62.1354 35.5312 61.5312 34.2083 60.7188 33.0625C59.9271 31.8958 58.9271 30.9792 57.7188 30.3125C56.5312 29.6458 55.1354 29.3125 53.5312 29.3125C51.9479 29.3125 50.5521 29.6458 49.3438 30.3125C48.1562 30.9792 47.1562 31.8958 46.3438 33.0625C45.5521 34.2083 44.9583 35.5312 44.5625 37.0312C44.1667 38.5104 43.9688 40.0833 43.9688 41.75ZM76.1875 11H82V52.4375L81.5 59H76.1875V11ZM104.844 41.8125V42.4688C104.844 44.9271 104.552 47.2083 103.969 49.3125C103.385 51.3958 102.531 53.2083 101.406 54.75C100.281 56.2917 98.9062 57.4896 97.2812 58.3438C95.6562 59.1979 93.7917 59.625 91.6875 59.625C89.5417 59.625 87.6562 59.2604 86.0312 58.5312C84.4271 57.7812 83.0729 56.7083 81.9688 55.3125C80.8646 53.9167 79.9792 52.2292 79.3125 50.25C78.6667 48.2708 78.2188 46.0417 77.9688 43.5625V40.6875C78.2188 38.1875 78.6667 35.9479 79.3125 33.9688C79.9792 31.9896 80.8646 30.3021 81.9688 28.9062C83.0729 27.4896 84.4271 26.4167 86.0312 25.6875C87.6354 24.9375 89.5 24.5625 91.625 24.5625C93.75 24.5625 95.6354 24.9792 97.2812 25.8125C98.9271 26.625 100.302 27.7917 101.406 29.3125C102.531 30.8333 103.385 32.6562 103.969 34.7812C104.552 36.8854 104.844 39.2292 104.844 41.8125ZM99.0312 42.4688V41.8125C99.0312 40.125 98.875 38.5417 98.5625 37.0625C98.25 35.5625 97.75 34.25 97.0625 33.125C96.375 31.9792 95.4688 31.0833 94.3438 30.4375C93.2188 29.7708 91.8333 29.4375 90.1875 29.4375C88.7292 29.4375 87.4583 29.6875 86.375 30.1875C85.3125 30.6875 84.4062 31.3646 83.6562 32.2188C82.9062 33.0521 82.2917 34.0104 81.8125 35.0938C81.3542 36.1562 81.0104 37.2604 80.7812 38.4062V45.9375C81.1146 47.3958 81.6562 48.8021 82.4062 50.1562C83.1771 51.4896 84.1979 52.5833 85.4688 53.4375C86.7604 54.2917 88.3542 54.7188 90.25 54.7188C91.8125 54.7188 93.1458 54.4062 94.25 53.7812C95.375 53.1354 96.2812 52.25 96.9688 51.125C97.6771 50 98.1979 48.6979 98.5312 47.2188C98.8646 45.7396 99.0312 44.1562 99.0312 42.4688ZM121.281 55.5L130.688 25.1875H136.875L123.312 64.2188C123 65.0521 122.583 65.9479 122.062 66.9062C121.562 67.8854 120.917 68.8125 120.125 69.6875C119.333 70.5625 118.375 71.2708 117.25 71.8125C116.146 72.375 114.823 72.6562 113.281 72.6562C112.823 72.6562 112.24 72.5938 111.531 72.4688C110.823 72.3438 110.323 72.2396 110.031 72.1562L110 67.4688C110.167 67.4896 110.427 67.5104 110.781 67.5312C111.156 67.5729 111.417 67.5938 111.562 67.5938C112.875 67.5938 113.99 67.4167 114.906 67.0625C115.823 66.7292 116.594 66.1562 117.219 65.3438C117.865 64.5521 118.417 63.4583 118.875 62.0625L121.281 55.5ZM114.375 25.1875L123.156 51.4375L124.656 57.5312L120.5 59.6562L108.062 25.1875H114.375Z" fill="#1E1E1E"/>
<path d="M138.812 55.9375C138.812 54.9583 139.115 54.1354 139.719 53.4688C140.344 52.7812 141.24 52.4375 142.406 52.4375C143.573 52.4375 144.458 52.7812 145.062 53.4688C145.688 54.1354 146 54.9583 146 55.9375C146 56.8958 145.688 57.7083 145.062 58.375C144.458 59.0417 143.573 59.375 142.406 59.375C141.24 59.375 140.344 59.0417 139.719 58.375C139.115 57.7083 138.812 56.8958 138.812 55.9375Z" fill="#E2EBFF"/>
<path d="M155.688 55.9375C155.688 54.9583 155.99 54.1354 156.594 53.4688C157.219 52.7812 158.115 52.4375 159.281 52.4375C160.448 52.4375 161.333 52.7812 161.938 53.4688C162.562 54.1354 162.875 54.9583 162.875 55.9375C162.875 56.8958 162.562 57.7083 161.938 58.375C161.333 59.0417 160.448 59.375 159.281 59.375C158.115 59.375 157.219 59.0417 156.594 58.375C155.99 57.7083 155.688 56.8958 155.688 55.9375Z" fill="#7033FF"/>
<path d="M172.562 55.9375C172.562 54.9583 172.865 54.1354 173.469 53.4688C174.094 52.7812 174.99 52.4375 176.156 52.4375C177.323 52.4375 178.208 52.7812 178.812 53.4688C179.438 54.1354 179.75 54.9583 179.75 55.9375C179.75 56.8958 179.438 57.7083 178.812 58.375C178.208 59.0417 177.323 59.375 176.156 59.375C174.99 59.375 174.094 59.0417 173.469 58.375C172.865 57.7083 172.562 56.8958 172.562 55.9375Z" fill="#1E69DC"/>
</svg>
